<svg xmlns="http://www.w3.org/2000/svg" enable-background="new 0 0 1024 1024" viewBox="0 0 1024 1024"><path d="M912,705c-7.2,0-14.5,0-21.7,0c-19.6,0-39.1,0-58.7,0c-28.9,0-57.7,0-86.6,0c-35.2,0-70.4,0-105.6,0
				c-38.5,0-77,0-115.5,0c-39,0-77.9,0-116.9,0c-36.1,0-72.2,0-108.3,0c-30.4,0-60.7,0-91.1,0c-21.7,0-43.3,0-65,0
				c-9.9,0-19.9,0-29.8,0c-2.6,0-5.2-0.2-7.8-0.5c2.7,0.4,5.3,0.7,8,1.1c-4-0.6-7.8-1.7-11.5-3.2c2.4,1,4.8,2,7.2,3
				c-2.6-1.2-5-2.6-7.4-4c-5.4-3.1,5.1,4.7,1.4,1.2c-0.9-0.9-1.9-1.7-2.8-2.6c-0.9-0.9-1.7-1.9-2.6-2.8c-3.5-3.8,4.1,6.1,1.6,2
				c-1.6-2.6-3.1-5.2-4.3-8c1,2.4,2,4.8,3,7.2c-1.5-3.7-2.6-7.5-3.2-11.5c0.4,2.7,0.7,5.3,1.1,8c-0.8-6.5-0.5-13.1-0.5-19.6
				c0-12.7,0-25.4,0-38.1c0-42.2,0-84.4,0-126.6c0-51.6,0-103.2,0-154.9c0-44.2,0-88.3,0-132.5c0-20.9-0.2-41.8,0-62.7
				c0-2.5,0.2-4.9,0.5-7.3c-0.4,2.7-0.7,5.3-1.1,8c0.6-4,1.7-7.8,3.2-11.5c-1,2.4-2,4.8-3,7.2c1.2-2.6,2.6-5,4-7.4
				c3.1-5.4-4.7,5.1-1.2,1.4c0.9-0.9,1.7-1.9,2.6-2.8c0.9-0.9,1.9-1.7,2.8-2.6c3.8-3.5-6.1,4.1-2,1.6c2.6-1.6,5.2-3.1,8-4.3
				c-2.4,1-4.8,2-7.2,3c3.7-1.5,7.5-2.6,11.5-3.2c-2.7,0.4-5.3,0.7-8,1.1c8.8-1.1,18-0.5,26.8-0.5c19.3,0,38.6,0,57.9,0
				c28.7,0,57.5,0,86.2,0c35.2,0,70.4,0,105.6,0c38.6,0,77.2,0,115.8,0c39.2,0,78.3,0,117.5,0c36.3,0,72.6,0,108.9,0
				c30.6,0,61.2,0,91.7,0c21.8,0,43.6,0,65.4,0c10,0,20,0,30,0c2.6,0,5.2,0.2,7.8,0.5c-2.7-0.4-5.3-0.7-8-1.1
				c4,0.6,7.8,1.7,11.5,3.2c-2.4-1-4.8-2-7.2-3c2.6,1.2,5,2.6,7.4,4c5.4,3.1-5.1-4.7-1.4-1.2c0.9,0.9,1.9,1.7,2.8,2.6
				c0.9,0.9,1.7,1.9,2.6,2.8c3.5,3.8-4.1-6.1-1.6-2c1.6,2.6,3.1,5.2,4.3,8c-1-2.4-2-4.8-3-7.2c1.5,3.7,2.6,7.5,3.2,11.5
				c-0.4-2.7-0.7-5.3-1.1-8c0.8,6.5,0.5,13.1,0.5,19.6c0,12.7,0,25.4,0,38.1c0,42.2,0,84.4,0,126.6c0,51.6,0,103.2,0,154.9
				c0,44.2,0,88.3,0,132.5c0,20.9,0.2,41.8,0,62.7c0,2.5-0.2,4.9-0.5,7.3c0.4-2.7,0.7-5.3,1.1-8c-0.6,4-1.7,7.8-3.2,11.5
				c1-2.4,2-4.8,3-7.2c-1.2,2.6-2.6,5-4,7.4c-3.1,5.4,4.7-5.1,1.2-1.4c-0.9,0.9-1.7,1.9-2.6,2.8c-0.9,0.9-1.9,1.7-2.8,2.6
				c-3.8,3.5,6.1-4.1,2-1.6c-2.6,1.6-5.2,3.1-8,4.3c2.4-1,4.8-2,7.2-3c-3.7,1.5-7.5,2.6-11.5,3.2c2.7-0.4,5.3-0.7,8-1.1
				C916.5,704.8,914.3,705,912,705c-15.7,0.2-30.7,13.6-30,30c0.7,16.1,13.2,30.2,30,30c34.2-0.5,64.9-23.2,74.2-56.3
				c2.3-8.1,2.8-16.5,2.8-24.9c0-14,0-28.1,0-42.1c0-25.5,0-51.1,0-76.6c0-32.1,0-64.2,0-96.3c0-34.3,0-68.6,0-102.9
				c0-31.6,0-63.3,0-94.9c0-24.2,0-48.3,0-72.5c0-12.2,0-24.5,0-36.7c0-15.5-3.8-31.5-12.9-44.3C961.1,96.2,938,83.3,911.7,83
				c-7-0.1-14,0-21,0c-16.6,0-33.2,0-49.8,0c-24,0-48,0-72,0c-29.6,0-59.1,0-88.7,0c-33,0-66,0-99,0c-34.2,0-68.4,0-102.7,0
				c-33.7,0-67.4,0-101.2,0c-30.9,0-61.7,0-92.6,0c-26.3,0-52.5,0-78.8,0c-19.4,0-38.9,0-58.3,0c-10.5,0-21.1,0-31.6,0
				c-2.3,0-4.5-0.1-6.8,0.1c-33.6,1.9-64.6,25.1-72.1,58.8c-2.8,12.9-2.2,26-2.2,39.1c0,20.5,0,41,0,61.5c0,29.6,0,59.2,0,88.8
				c0,33.7,0,67.5,0,101.2c0,33.5,0,67,0,100.5c0,28.4,0,56.8,0,85.2c0,18.5,0,37.1,0,55.6c0,4.2,0,8.4,0,12.6
				c0,19.3,6.4,36.2,18.3,51.2c14,17.7,36.8,27.2,59.1,27.4c2.3,0,4.5,0,6.8,0c12.2,0,24.4,0,36.7,0c20.7,0,41.5,0,62.2,0
				c27.1,0,54.1,0,81.2,0c31.6,0,63.2,0,94.8,0c34,0,67.9,0,101.9,0c34.1,0,68.3,0,102.4,0c32.6,0,65.1,0,97.7,0c28.7,0,57.3,0,86,0
				c23,0,46,0,69,0c15.1,0,30.2,0,45.3,0c5.2,0,10.4,0,15.6,0c15.7,0,30.7-13.8,30-30C941.3,718.7,928.8,705,912,705z"/><path d="M542,911c0-19.8,0-39.6,0-59.5c0-31.6,0-63.2,0-94.8c0-7.3,0-14.5,0-21.8c0-15.7-13.8-30.7-30-30
				c-16.3,0.7-30,13.2-30,30c0,19.8,0,39.6,0,59.5c0,31.6,0,63.2,0,94.8c0,7.3,0,14.5,0,21.8c0,15.7,13.8,30.7,30,30
				C528.3,940.3,542,927.8,542,911L542,911z"/><path d="M277 941c15.7 0 31.3 0 47 0 37.3 0 74.5 0 111.8 0 45.4 0 90.8 0 136.2 0 39.1 0 78.2 0 117.3 0 19 0 38 .4 57 0 .3 0 .5 0 .8 0 15.7 0 30.7-13.8 30-30-.7-16.3-13.2-30-30-30-15.7 0-31.3 0-47 0-37.3 0-74.5 0-111.8 0-45.4 0-90.8 0-136.2 0-39.1 0-78.2 0-117.3 0-19 0-38-.4-57 0-.3 0-.5 0-.8 0-15.7 0-30.7 13.8-30 30C247.7 927.3 260.2 941 277 941L277 941zM370.3 389.8c-15.1 13.5-30.2 27.1-45.3 40.6-23.9 21.5-47.9 42.9-71.8 64.4-5.5 5-11.1 9.9-16.6 14.9-11.7 10.5-11.5 31.9 0 42.4 12.5 11.5 29.9 11.2 42.4 0 15.1-13.5 30.2-27.1 45.3-40.6 23.9-21.5 47.9-42.9 71.8-64.4 5.5-5 11.1-9.9 16.6-14.9 11.7-10.5 11.5-31.9 0-42.4C400.3 378.3 382.8 378.6 370.3 389.8L370.3 389.8zM747.9 298.6c-15.7 17.6-31.4 35.2-47 52.7-25 28-50 56-75 84-5.7 6.4-11.5 12.9-17.2 19.3-10.4 11.7-12.4 31 0 42.4 11.4 10.5 31.3 12.5 42.4 0 15.7-17.6 31.4-35.2 47-52.7 25-28 50-56 75-84 5.7-6.4 11.5-12.9 17.2-19.3 10.4-11.7 12.4-31 0-42.4C778.9 288.1 759.1 286.1 747.9 298.6L747.9 298.6z"/><path d="M590 458c-36.6-22.7-73.2-45.3-109.8-68-5.2-3.2-10.4-6.5-15.6-9.7-13.4-8.3-33.6-3.3-41 10.8-7.8 14.7-3.5 32.2 10.8 41 36.6 22.7 73.2 45.3 109.8 68 5.2 3.2 10.4 6.5 15.6 9.7 13.4 8.3 33.6 3.3 41-10.8C608.5 484.4 604.2 466.8 590 458L590 458zM237 555c0 1.8-.2 3.6-.4 5.4.4-2.7.7-5.3 1.1-8-.5 3.1-1.4 6-2.5 8.9 1-2.4 2-4.8 3-7.2-.8 1.8-1.8 3.4-2.8 5.1-2.7 4.8 1.7-2.7 2-2.4.1.1-2 2.2-2.2 2.4-.6.6-1.3 1.1-1.9 1.8-2.3 2.4 6.4-4.3 2.5-2-1.9 1.1-3.7 2.2-5.7 3.1 2.4-1 4.8-2 7.2-3-2.9 1.2-5.8 2-8.9 2.5 2.7-.4 5.3-.7 8-1.1-3.7.5-7.2.5-10.9 0 2.7.4 5.3.7 8 1.1-3.1-.5-6-1.4-8.9-2.5 2.4 1 4.8 2 7.2 3-1.8-.8-3.4-1.8-5.1-2.8-4.8-2.7 2.7 1.7 2.4 2-.1.1-2.2-2-2.4-2.2-.6-.6-1.1-1.3-1.8-1.9-2.4-2.3 4.3 6.4 2 2.5-1.1-1.9-2.2-3.7-3.1-5.7 1 2.4 2 4.8 3 7.2-1.2-2.9-2-5.8-2.5-8.9.4 2.7.7 5.3 1.1 8-.4-3.4-.5-6.7-.1-10.1-.4 2.7-.7 5.3-1.1 8 .5-3.3 1.3-6.4 2.6-9.5-1 2.4-2 4.8-3 7.2.8-1.8 1.7-3.6 2.8-5.3 3-4.7-2 2.2-1.9 2.3-.1-.3 2.1-2.2 2.3-2.4.6-.6 1.3-1.2 2-1.8 2.5-2.3-6.3 4.3-2.3 1.9 1.9-1.1 3.9-2.2 6-3.1-2.4 1-4.8 2-7.2 3 3-1.2 6.1-1.9 9.3-2.4-2.7.4-5.3.7-8 1.1 3-.3 5.9-.3 9 .1-2.7-.4-5.3-.7-8-1.1 3.1.5 5.9 1.2 8.8 2.3-2.4-1-4.8-2-7.2-3 1.8.8 3.6 1.7 5.3 2.7.4.2 2.1 1.7 2.5 1.7-.9.2-6.1-5.2-2.1-1.3.7.7 1.3 1.5 2 2.2 2.3 2.3-3.4-5.3-2-2.5 1 2 2.3 3.9 3.2 6-1-2.4-2-4.8-3-7.2 1.1 2.9 1.9 5.9 2.4 9-.4-2.7-.7-5.3-1.1-8C236.9 551.8 237 553.4 237 555c.3 15.7 13.6 30.7 30 30 16-.7 30.4-13.2 30-30-.7-29.4-20.7-57.6-50.3-64.1-28.2-6.2-56.3 5.2-71.9 29.5-13.6 21.1-13 51.5 1.8 71.8 16.4 22.5 43.6 33.5 71 26.6 29.1-7.2 48.8-34.5 49.3-63.9.3-15.7-14-30.7-30-30C250.5 525.7 237.3 538.2 237 555z"/><path d="M424.7 387.3c0 1.7-.2 3.4-.4 5.1.4-2.7.7-5.3 1.1-8-.5 3.3-1.4 6.4-2.7 9.5 1-2.4 2-4.8 3-7.2-.9 1.9-2 3.7-3 5.5-1.8 2.5-1.1 1.6 2.1-2.6-.6.7-1.3 1.4-2 2.1-.7.7-1.4 1.3-2.1 1.9 4.2-3.1 5.1-3.8 2.6-2.1-1.7 1-3.3 1.9-5.1 2.8 2.4-1 4.8-2 7.2-3-3.3 1.4-6.5 2.3-10 2.8 2.7-.4 5.3-.7 8-1.1-3.2.3-6.2.3-9.4 0 2.7.4 5.3.7 8 1.1-3.1-.5-6-1.3-9-2.4 2.4 1 4.8 2 7.2 3-1.9-.8-3.6-1.8-5.4-2.8-2.5-1.7-1.7-1 2.4 2.1-.8-.6-1.5-1.3-2.2-2-.7-.7-1.4-1.4-2.1-2.2 3 4.1 3.6 4.8 1.8 2.3-1.1-1.9-2.1-3.6-3-5.6 1 2.4 2 4.8 3 7.2-1.2-3-2.1-6.1-2.6-9.3.4 2.7.7 5.3 1.1 8-.4-3.5-.4-6.9.1-10.5-.4 2.7-.7 5.3-1.1 8 .5-3.1 1.4-6 2.5-8.9-1 2.4-2 4.8-3 7.2.8-1.8 1.8-3.4 2.8-5.1 2.7-4.8-1.7 2.7-2 2.4-.1-.1 2-2.2 2.2-2.4.6-.6 1.3-1.1 1.9-1.8 2.3-2.4-6.4 4.3-2.5 2 1.9-1.1 3.7-2.2 5.7-3.1-2.4 1-4.8 2-7.2 3 2.9-1.2 5.8-2 8.9-2.5-2.7.4-5.3.7-8 1.1 3.7-.5 7.2-.5 10.9 0-2.7-.4-5.3-.7-8-1.1 3.1.5 6 1.4 8.9 2.5-2.4-1-4.8-2-7.2-3 1.8.8 3.4 1.8 5.1 2.8 4.8 2.7-2.7-1.7-2.4-2 .1-.1 2.2 2 2.4 2.2.6.6 1.1 1.3 1.8 1.9 2.4 2.3-4.3-6.4-2-2.5 1.1 1.9 2.2 3.7 3.1 5.7-1-2.4-2-4.8-3-7.2 1.2 2.9 2 5.8 2.5 8.9-.4-2.7-.7-5.3-1.1-8C424.5 383.7 424.6 385.5 424.7 387.3c.3 15.7 13.6 30.7 30 30 16-.7 30.3-13.2 30-30-.5-24.2-14-48.6-36.5-58.9-25.2-11.5-53.3-8.1-74.2 10.5-18.6 16.6-26.4 45.7-17.8 69.3 10 27.2 36.5 47.6 66.4 44.9 16.3-1.4 31.6-7.6 43.2-19.5 12.2-12.5 18.6-29 19-46.3.4-15.7-14.1-30.7-30-30C438.1 358.1 425.1 370.5 424.7 387.3zM611.7 502.5c0 1.8-.2 3.6-.4 5.4.4-2.7.7-5.3 1.1-8-.5 3.1-1.4 6-2.5 8.9 1-2.4 2-4.8 3-7.2-.8 1.8-1.8 3.4-2.8 5.1-2.7 4.8 1.7-2.7 2-2.4.1.1-2 2.2-2.2 2.4-.6.6-1.3 1.1-1.9 1.8-2.3 2.4 6.4-4.3 2.5-2-1.9 1.1-3.7 2.2-5.7 3.1 2.4-1 4.8-2 7.2-3-2.9 1.2-5.8 2-8.9 2.5 2.7-.4 5.3-.7 8-1.1-3.7.5-7.2.5-10.9 0 2.7.4 5.3.7 8 1.1-3.1-.5-6-1.4-8.9-2.5 2.4 1 4.8 2 7.2 3-1.8-.8-3.4-1.8-5.1-2.8-4.8-2.7 2.7 1.7 2.4 2-.1.1-2.2-2-2.4-2.2-.6-.6-1.1-1.3-1.8-1.9-2.4-2.3 4.3 6.4 2 2.5-1.1-1.9-2.2-3.7-3.1-5.7 1 2.4 2 4.8 3 7.2-1.2-2.9-2-5.8-2.5-8.9.4 2.7.7 5.3 1.1 8-.5-3.5-.5-6.9-.1-10.5-.4 2.7-.7 5.3-1.1 8 .5-3.2 1.4-6.3 2.6-9.3-1 2.4-2 4.8-3 7.2.9-1.9 1.9-3.6 2.9-5.4 2.1-3.7-2.2 2.7-2.2 2.7 0-.6 2-2.2 2.4-2.6.7-.7 1.4-1.2 2.1-1.9 2.3-2.2-5.5 3.6-2.7 2.2 1.9-1 3.6-2.1 5.6-3-2.4 1-4.8 2-7.2 3 3.2-1.3 6.3-2.1 9.7-2.6-2.7.4-5.3.7-8 1.1 3.1-.3 6.2-.3 9.3.1-2.7-.4-5.3-.7-8-1.1 3.1.5 6.1 1.3 9.1 2.5-2.4-1-4.8-2-7.2-3 1.9.8 3.6 1.8 5.4 2.9 3.6 2-2-1.9-2.4-2 .9.2 2.1 1.9 2.7 2.5.8.8 3.1 3.7.1-.3-3-4-.8-1-.2-.1 1.2 1.9 2.2 3.9 3.1 5.9-1-2.4-2-4.8-3-7.2 1.1 2.9 1.8 5.7 2.3 8.8-.4-2.7-.7-5.3-1.1-8C611.5 499.4 611.6 500.9 611.7 502.5c.3 15.7 13.6 30.7 30 30 16-.7 30.4-13.2 30-30-.6-29.3-19.8-55.8-48.5-63.7-28.3-7.7-57.6 4.6-73.5 28.7-7.3 11-11 25.9-9.8 39 1.4 15 6.6 27.5 16.1 39.2 15.6 19.3 43.4 26.7 67 20.4 28.7-7.7 48.1-34.4 48.7-63.7.3-15.7-14-30.7-30-30C625.2 473.2 612 485.7 611.7 502.5zM799.3 293.2c0 1.8-.2 3.6-.4 5.4.4-2.7.7-5.3 1.1-8-.5 3.1-1.4 6-2.5 8.9 1-2.4 2-4.8 3-7.2-.8 1.8-1.8 3.4-2.8 5.1-2.7 4.8 1.7-2.7 2-2.4.1.1-2 2.2-2.2 2.4-.6.6-1.3 1.1-1.9 1.8-2.3 2.4 6.4-4.3 2.5-2-1.9 1.1-3.7 2.2-5.7 3.1 2.4-1 4.8-2 7.2-3-2.9 1.2-5.8 2-8.9 2.5 2.7-.4 5.3-.7 8-1.1-3.5.5-6.8.5-10.3.1 2.7.4 5.3.7 8 1.1-3.1-.5-6.1-1.3-9.1-2.5 2.4 1 4.8 2 7.2 3-1.9-.8-3.6-1.8-5.4-2.9-3.6-2.1 2 1.9 2.4 2-.9-.2-2.1-1.9-2.7-2.5-.8-.8-3.1-3.7-.1.3 3 4 .8 1 .2.1-1.2-1.9-2.2-3.9-3.1-5.9 1 2.4 2 4.8 3 7.2-1.1-2.9-1.8-5.7-2.3-8.8.4 2.7.7 5.3 1.1 8-.4-3.4-.3-6.7.1-10.1-.4 2.7-.7 5.3-1.1 8 .5-3.1 1.4-6 2.5-8.9-1 2.4-2 4.8-3 7.2.8-1.8 1.8-3.4 2.8-5.1 2.7-4.8-1.7 2.7-2 2.4-.1-.1 2-2.2 2.2-2.4.6-.6 1.3-1.1 1.9-1.8 2.3-2.4-6.4 4.3-2.5 2 1.9-1.1 3.7-2.2 5.7-3.1-2.4 1-4.8 2-7.2 3 2.9-1.2 5.8-2 8.9-2.5-2.7.4-5.3.7-8 1.1 3.5-.5 6.9-.5 10.5-.1-2.7-.4-5.3-.7-8-1.1 3.2.5 6.2 1.3 9.2 2.6-2.4-1-4.8-2-7.2-3 1.9.9 3.7 1.8 5.5 2.9 1 .6 3.8 2.8-.3-.3-4.3-3.3-.7-.4.1.4.4.4 1.3 1.9 1.9 2-.6-.2-4.2-6.2-2.2-2.8 1.2 2 2.3 3.9 3.3 6.1-1-2.4-2-4.8-3-7.2 1.2 3.1 2.1 6.2 2.5 9.6-.4-2.7-.7-5.3-1.1-8C799.2 290.3 799.3 291.7 799.3 293.2c.3 15.7 13.6 30.7 30 30 16-.7 30.3-13.2 30-30-.6-29.2-18.7-53.1-45.9-62.8-23.7-8.5-53.2-.1-69.3 19-18.3 21.6-22.5 52.9-7.4 77.7 15.2 25 45.6 37.4 74 29.8 28.7-7.7 48.1-34.4 48.7-63.7.3-15.7-14-30.7-30-30C812.8 263.9 799.6 276.3 799.3 293.2z"/></svg>