<svg xmlns="http://www.w3.org/2000/svg" data-name="Layer 1" viewBox="0 0 512 512">
    <path d="M217 100h35.5v35.5a7.5 7.5 0 0 0 15 0V100H302a7.5 7.5 0 0 0 0-15h-34.5V50.5a7.5 7.5 0 0 0-15 0V85H217a7.5 7.5 0 0 0 0 15Zm224 106h-22.5v-52.5A37.542 37.542 0 0 0 381 116h-31.502a92.5 92.5 0 1 0-178.996 0H86a52.5 52.5 0 0 0-52.5 52.5v276A67.576 67.576 0 0 0 101 512h340a37.542 37.542 0 0 0 37.5-37.5v-231A37.542 37.542 0 0 0 441 206ZM260 15a77.602 77.602 0 0 1 72.405 105.259 7.434 7.434 0 0 0-.454 1.192A77.17 77.17 0 0 1 296.237 161h-72.474a77.17 77.17 0 0 1-35.714-39.549 7.434 7.434 0 0 0-.454-1.192A77.602 77.602 0 0 1 260 15ZM59.484 141.983A37.25 37.25 0 0 1 86 131h89.824a91.7 91.7 0 0 0 21.959 30H146a7.5 7.5 0 0 0 0 15h152.065l.02.001.027-.001H373a7.5 7.5 0 0 0 0-15h-50.783a91.7 91.7 0 0 0 21.959-30H381a22.525 22.525 0 0 1 22.5 22.5V206H86a37.5 37.5 0 0 1-26.516-64.017ZM463.5 396h-82a37 37 0 0 1 0-74h82Zm0-89h-82a52 52 0 0 0 0 104h82v63.5A22.525 22.525 0 0 1 441 497H101a52.56 52.56 0 0 1-52.5-52.5V205.192A52.335 52.335 0 0 0 86 221h355a22.525 22.525 0 0 1 22.5 22.5Zm-89 52a7.5 7.5 0 1 0 7.5-7.5 7.5 7.5 0 0 0-7.5 7.5Z"/>
</svg>