<svg xmlns="http://www.w3.org/2000/svg" enable-background="new 0 0 24 24" viewBox="0 0 24 24">
    <path d="M6.4 10.9C4 10.9 2 8.9 2 6.4S4 2 6.4 2s4.4 2 4.4 4.4S8.9 10.9 6.4 10.9zM6.4 4.2c-1.2 0-2.2 1-2.2 2.2s1 2.2 2.2 2.2 2.2-1 2.2-2.2S7.7 4.2 6.4 4.2zM6.4 22C4 22 2 20 2 17.6s2-4.4 4.4-4.4 4.4 2 4.4 4.4S8.9 22 6.4 22zM6.4 15.3c-1.2 0-2.2 1-2.2 2.2s1 2.2 2.2 2.2 2.2-1 2.2-2.2S7.7 15.3 6.4 15.3zM17.6 10.9c-2.5 0-4.4-2-4.4-4.4s2-4.4 4.4-4.4S22 4 22 6.4 20 10.9 17.6 10.9zM17.6 4.2c-1.2 0-2.2 1-2.2 2.2s1 2.2 2.2 2.2 2.2-1 2.2-2.2S18.8 4.2 17.6 4.2zM17.6 22c-2.5 0-4.4-2-4.4-4.4s2-4.4 4.4-4.4 4.4 2 4.4 4.4S20 22 17.6 22zM17.6 15.3c-1.2 0-2.2 1-2.2 2.2s1 2.2 2.2 2.2 2.2-1 2.2-2.2S18.8 15.3 17.6 15.3z"/>
</svg>