<svg xmlns="http://www.w3.org/2000/svg" enable-background="new 0 0 512 512" viewBox="0 0 512 512">
    <path fill="#8bdec5" d="M396.089,232.772c-4.366-0.533-8.139-3.042-10.35-6.884c-22.938-39.86-53.97-72.17-92.233-96.034
		c-3.597-2.243-5.965-5.964-6.494-10.209c-0.153-1.226-0.129-2.444,0.027-3.636h-242.2c-16.532,0-29.981,13.45-29.981,29.981
		v221.155c0-5.522,4.477-10,10-10h367.166c5.522,0,10,4.478,10,10V232.204c-1.354,0.44-2.776,0.673-4.228,0.673
		C397.229,232.877,396.66,232.842,396.089,232.772z M329.522,326.54c0,11.028-8.972,20-20,20H208.464
		c-0.013,0.001-0.027,0.001-0.04,0H107.356c-11.028,0-20-8.972-20-20V200.994c0-11.028,8.972-20,20-20h17.028v-17.39
		c0-6.607,4.212-12.356,10.48-14.307h0c26.611-8.283,52.91,2.39,78.222,31.697h96.436c11.028,0,20,8.972,20,20V326.54z"/>
    <path fill="#726b93" d="M158.703,417.336v60.378h-29.736c-5.523,0-10,4.478-10,10s4.477,10,10,10h29.736h99.474h29.735
		c5.522,0,10-4.478,10-10s-4.478-10-10-10h-29.735v-60.378H158.703z"/>
    <path fill="#988fc4" d="M392.022,357.146H24.857c-5.523,0-10,4.478-10,10v20.208c0,16.532,13.45,29.981,29.981,29.981h113.865h99.474
		h113.864c16.532,0,29.981-13.449,29.981-29.981v-20.208C402.022,361.624,397.545,357.146,392.022,357.146z"/>
    <path fill="#d9d9d9" d="M207.378,346.482c-2.586-0.281-5.026-1.599-6.677-3.608c-20.126-24.591-38.997-34.255-57.684-29.556
		c-4.504,1.134-9.188,0.146-12.853-2.712c-3.673-2.862-5.78-7.176-5.78-11.833v-117.78h-17.028c-11.028,0-20,8.972-20,20V326.54
		c0,11.028,8.972,20,20,20h101.067C208.075,346.522,207.721,346.522,207.378,346.482z"/>
    <path fill="#f5f5fc" d="M309.522,180.994h-96.436c1.032,1.195,2.063,2.41,3.092,3.667c1.462,1.787,2.261,4.024,2.261,6.333V336.54
		c0.088,5.401-4.591,10.068-9.975,10h101.058c11.028,0,20-8.972,20-20V200.994C329.522,189.966,320.551,180.994,309.522,180.994z
		 M291.752,273.767H236.21c-5.523,0-10-4.478-10-10s4.477-10,10-10h55.542c5.522,0,10,4.478,10,10S297.274,273.767,291.752,273.767z
		 M301.752,294.002c0,5.522-4.478,10-10,10H236.21c-5.523,0-10-4.478-10-10s4.477-10,10-10h55.542
		C297.274,284.002,301.752,288.479,301.752,294.002z M291.752,243.532H236.21c-5.523,0-10-4.477-10-10s4.477-10,10-10h55.542
		c5.522,0,10,4.477,10,10S297.274,243.532,291.752,243.532z"/>
    <path fill="#ececed" d="M211.802,345.958c3.98-1.422,6.637-5.191,6.637-9.418V190.994c0-2.309-0.799-4.547-2.261-6.333
		c-1.029-1.257-2.06-2.472-3.092-3.667c-25.312-29.307-51.611-39.98-78.222-31.697h0c-6.269,1.95-10.48,7.7-10.48,14.307v17.39
		v117.78c0,4.657,2.107,8.971,5.78,11.833c3.666,2.858,8.349,3.846,12.853,2.712c18.687-4.699,37.557,4.965,57.684,29.556
		C203.308,346.087,207.898,347.396,211.802,345.958z"/>
    <path fill="#de8bae"
          d="M291.752 253.767H236.21c-5.523 0-10 4.478-10 10s4.477 10 10 10h55.542c5.522 0 10-4.478 10-10S297.274 253.767 291.752 253.767zM291.752 284.002H236.21c-5.523 0-10 4.478-10 10s4.477 10 10 10h55.542c5.522 0 10-4.478 10-10S297.274 284.002 291.752 284.002zM291.752 223.532H236.21c-5.523 0-10 4.477-10 10s4.477 10 10 10h55.542c5.522 0 10-4.477 10-10S297.274 223.532 291.752 223.532z"/>
    <path fill="#726b93" d="M370.896,154.256c-4.274-1.483-7.658-4.967-9.052-9.319l-26.605-83.091l-44.403,46.223
		c-2.112,2.201-3.41,4.981-3.798,7.941c-0.156,1.192-0.18,2.41-0.027,3.636c0.529,4.245,2.897,7.966,6.494,10.209
		c38.264,23.863,69.296,56.174,92.233,96.034c2.211,3.842,5.983,6.351,10.35,6.884c0.571,0.07,1.141,0.104,1.706,0.104
		c1.452,0,2.874-0.234,4.228-0.673c2.134-0.693,4.097-1.908,5.72-3.597l44.354-46.173L370.896,154.256z"/>
    <path fill="#988fc4" d="M496.431,173.089L460.725,61.575c-1.394-4.353-4.777-7.836-9.052-9.319L344.552,15.083
		c-5.149-1.787-10.782-0.523-14.699,3.301c-4.009,3.914-5.433,9.675-3.715,15.038l9.101,28.423l26.605,83.091
		c1.394,4.353,4.777,7.836,9.052,9.319l81.2,28.177l11.181,3.88v39.388c0,5.523,4.478,10,10,10s10-4.477,10-10v-33.502
		c3.473-0.136,6.836-1.531,9.438-4.072C496.725,184.214,498.148,178.452,496.431,173.089z"/>
</svg>