<svg xmlns="http://www.w3.org/2000/svg" data-name="Layer 1" viewBox="0 0 512 512">
    <path fill="#2c2a2d"
          d="M326.28,183.9a7.49,7.49,0,0,0-10.6,0L183.9,315.68a7.5,7.5,0,1,0,10.6,10.6L326.28,194.5A7.49,7.49,0,0,0,326.28,183.9Zm-114.2,64.58a36.4,36.4,0,1,0-25.75-10.65A36.31,36.31,0,0,0,212.08,248.48Zm-15.15-51.55a21.42,21.42,0,1,1,0,30.29A21.38,21.38,0,0,1,196.93,196.93Zm295,27c-6.61-6.32-13.44-12.86-14.7-18.38-1.34-5.9,2.06-15,5.35-23.82,4.69-12.57,9.54-25.57,4.15-36.74-5.49-11.36-18.83-15.69-31.73-19.89-8.83-2.87-17.95-5.83-21.6-10.4s-4.57-14.21-5.42-23.49C426.7,77.75,425.43,63.84,415.62,56s-23.56-6-36.92-4.18c-9.28,1.23-18.88,2.5-24.27-.09-5.19-2.51-10.09-10.68-14.82-18.59-7-11.68-14.24-23.77-26.65-26.59-12-2.72-23.49,4.86-34.64,12.18C270.39,24,262.19,29.35,256,29.35S241.61,24,233.68,18.75C222.53,11.43,211,3.86,199,6.57c-12.41,2.82-19.65,14.91-26.65,26.59-4.73,7.91-9.63,16.08-14.82,18.59-5.39,2.59-15,1.32-24.27.09-13.36-1.77-27.17-3.61-36.92,4.18S85.3,77.75,84.06,91.2c-.85,9.28-1.73,18.87-5.42,23.49s-12.77,7.53-21.6,10.4c-12.9,4.19-26.24,8.53-31.73,19.89-5.39,11.17-.54,24.17,4.15,36.74,3.29,8.81,6.69,17.92,5.35,23.82-1.26,5.52-8.09,12.06-14.7,18.38C10.22,233.38,0,243.16,0,256s10.22,22.62,20.11,32.08c6.61,6.32,13.44,12.86,14.7,18.38,1.34,5.9-2.06,15-5.35,23.82-4.69,12.57-9.54,25.57-4.15,36.74C30.8,378.38,44.14,382.71,57,386.91c8.83,2.87,17.95,5.83,21.6,10.4s4.57,14.21,5.42,23.49c1.24,13.45,2.51,27.36,12.32,35.18s23.56,5.95,36.92,4.18c9.28-1.23,18.88-2.5,24.27.09,5.19,2.51,10.09,10.68,14.82,18.59,7,11.68,14.24,23.77,26.65,26.59a23.34,23.34,0,0,0,5.09.56c10.15,0,20-6.46,29.55-12.74,7.93-5.21,16.13-10.6,22.32-10.6s14.39,5.39,22.32,10.6c11.15,7.32,22.67,14.89,34.64,12.18,12.41-2.82,19.65-14.91,26.65-26.59,4.73-7.91,9.63-16.08,14.82-18.59,5.39-2.59,15-1.32,24.27-.09,13.36,1.77,27.17,3.61,36.92-4.18s11.08-21.73,12.32-35.18c.85-9.28,1.73-18.87,5.42-23.49s12.77-7.53,21.6-10.4c12.9-4.19,26.24-8.53,31.73-19.89,5.39-11.17.54-24.17-4.15-36.74-3.29-8.81-6.69-17.92-5.35-23.82,1.26-5.52,8.09-12.06,14.7-18.38C501.78,278.62,512,268.84,512,256S501.78,233.38,491.89,223.92Zm-10.37,53.32c-8.21,7.86-16.7,16-18.95,25.89-2.34,10.28,1.86,21.52,5.91,32.4,3.6,9.62,7.31,19.57,4.7,25-2.7,5.59-12.95,8.92-22.86,12.14-10.92,3.56-22.22,7.23-28.68,15.31s-7.59,20-8.64,31.48c-.95,10.32-1.92,21-6.73,24.83s-15.35,2.39-25.6,1c-11.47-1.52-23.32-3.09-32.75,1.45-9.24,4.46-15.31,14.59-21.18,24.39-5.38,9-10.94,18.27-17.1,19.67-5.75,1.31-14.56-4.49-23.08-10.09-9.77-6.42-19.88-13.06-30.56-13.06s-20.79,6.64-30.56,13.06c-8.52,5.6-17.34,11.39-23.08,10.09-6.16-1.4-11.72-10.69-17.1-19.67-5.87-9.8-11.94-19.93-21.18-24.39-4.67-2.25-9.93-3-15.44-3a133.89,133.89,0,0,0-17.31,1.55c-10.25,1.36-20.84,2.76-25.6-1S100,429.75,99,419.43C98,408,96.86,396.08,90.36,388S72.6,376.2,61.68,372.64c-9.91-3.22-20.16-6.55-22.86-12.14-2.61-5.4,1.1-15.35,4.7-25,4-10.88,8.25-22.12,5.91-32.4-2.25-9.91-10.74-18-18.95-25.89C22.87,270,15,262.43,15,256s7.87-14,15.48-21.24c8.21-7.86,16.7-16,19-25.89,2.34-10.28-1.86-21.52-5.91-32.4-3.6-9.62-7.31-19.57-4.7-25,2.7-5.59,13-8.92,22.86-12.14,10.92-3.56,22.22-7.23,28.68-15.31S98,104.05,99,92.57c1-10.32,1.92-21,6.73-24.83s15.35-2.39,25.6-1c11.47,1.52,23.32,3.09,32.75-1.45,9.24-4.46,15.31-14.59,21.18-24.39,5.38-9,10.94-18.27,17.1-19.67,5.75-1.31,14.56,4.49,23.08,10.09,9.77,6.42,19.88,13.06,30.56,13.06s20.79-6.64,30.56-13.06c8.52-5.6,17.33-11.39,23.08-10.09,6.16,1.4,11.72,10.69,17.1,19.67,5.87,9.8,11.94,19.93,21.18,24.39,9.43,4.54,21.29,3,32.75,1.45,10.25-1.36,20.84-2.77,25.6,1s5.78,14.51,6.73,24.83c1.05,11.48,2.14,23.35,8.64,31.48s17.76,11.75,28.68,15.31c9.91,3.22,20.16,6.55,22.86,12.14,2.61,5.4-1.1,15.35-4.7,25-4.05,10.88-8.25,22.12-5.91,32.4,2.25,9.91,10.74,18,18.95,25.89C489.13,242,497,249.57,497,256S489.13,270,481.52,277.24ZM256,77.15C157.38,77.15,77.15,157.38,77.15,256S157.38,434.85,256,434.85,434.85,354.62,434.85,256,354.62,77.15,256,77.15Zm0,342.7c-90.35,0-163.85-73.5-163.85-163.85S165.65,92.15,256,92.15,419.85,165.65,419.85,256,346.35,419.85,256,419.85Zm18.17-145.68a36.42,36.42,0,1,0,51.5,0A36.45,36.45,0,0,0,274.17,274.17Zm40.9,40.9a21.42,21.42,0,1,1,0-30.29A21.44,21.44,0,0,1,315.07,315.07Z"/>
</svg>