<svg xmlns="http://www.w3.org/2000/svg" data-name="Layer 1" viewBox="0 0 168 168">
    <path fill="#2d4356"
          d="M151 6a3 3 0 1 0 3 3A3.00344 3.00344 0 0 0 151 6zm0 4.5A1.5 1.5 0 1 1 152.5 9 1.50148 1.50148 0 0 1 151 10.5zM111 22a3 3 0 1 0-3-3A3.00344 3.00344 0 0 0 111 22zm0-4.5a1.5 1.5 0 1 1-1.5 1.5A1.50148 1.50148 0 0 1 111 17.5zM161 69a2 2 0 1 0 2 2A2.00229 2.00229 0 0 0 161 69zm0 3a1 1 0 1 1 1-1A1.001 1.001 0 0 1 161 72zM27 39a2 2 0 1 0-2-2A2.00229 2.00229 0 0 0 27 39zm0-3a1 1 0 1 1-1 1A1.001 1.001 0 0 1 27 36zM117 50a2 2 0 1 0-2-2A2.00229 2.00229 0 0 0 117 50zm0-3a1 1 0 1 1-1 1A1.001 1.001 0 0 1 117 47zM17 68a2 2 0 1 0-2-2A2.00229 2.00229 0 0 0 17 68zm0-3a1 1 0 1 1-1 1A1.001 1.001 0 0 1 17 65z"/>
    <circle cx="2" cy="146" r="2" fill="#2d4356"/>
    <path fill="#2d4356" d="M11 144H8a2 2 0 0 0 0 4h3a2 2 0 0 0 0-4zM160 144h-3a2 2 0 0 0 0 4h3a2 2 0 0 0 0-4z"/>
    <circle cx="166" cy="146" r="2" fill="#2d4356"/>
    <path fill="#2d4356"
          d="M150.72131,144h-8.88007c.67822-16.58063-.61719-36.45612-9.94141-51.438-.76318,1.24316-1.5542,2.5083-2.38428,3.80365,6.42041,11.34039,9.16986,27.04742,8.32568,47.63434H28.20844c-.46088-10.18652-.32318-22.1958,2.291-33.31842a21.85445,21.85445,0,0,1-3.7085-1.76172c-2.84808,11.5459-3.0752,24.044-2.584,35.08014H17.27869a2.017,2.017,0,1,0,0,4H150.72131a2.017,2.017,0,1,0,0-4Z"/>
    <path fill="#2d4356"
          d="M113.40912 98l-4.22656 10.06689A8.3999 8.3999 0 0 0 108.26508 108a6.8652 6.8652 0 0 0-4.37109 1.47119c-2.59222 2.09857-3.915 5.72949-4.60883 8.81787-1.337 5.95215-2.62311 11.49023-6.05518 16.7373-.2373.36279-1.376 1.81781-1.89313 2.62592A1.40891 1.40891 0 0 0 92.51312 140a2.28166 2.28166 0 0 0 .63184-.09229 39.3328 39.3328 0 0 0 14.43121-7.52985c3.04486-2.54639 6.24359-5.7915 8.04926-9.291a11.7084 11.7084 0 0 0 .14111-10.73193 6.58913 6.58913 0 0 0-.40668-.67529l5.64008-9.04791zm.4389 24.16986a30.33 30.33 0 0 1-7.55505 8.674l-.0318.02625-.0307.02832a37.08456 37.08456 0 0 1-12.4209 6.71539c.15228-.20605.30316-.40869.4375-.58887.34955-.46832.537-.72119.65668-.90381 3.69482-5.64844 5.03571-11.61908 6.33252-17.39362.81445-3.62347 2.16846-6.28711 3.916-7.70209A4.92262 4.92262 0 0 1 108.26508 110a6.98777 6.98777 0 0 1 3.59918 1.03607 5.5788 5.5788 0 0 1 2.1123 2.21149A9.7682 9.7682 0 0 1 113.848 122.16986zm.63043-12.85687l-2.9472-1.6734 2.82172-6.7207 3.88141 2.36823zM83.00043 76a28 28 0 1 0-28-27.99951A27.99972 27.99972 0 0 0 83.00043 76zm0-52a24 24 0 1 1-24 24.00049A24.02725 24.02725 0 0 1 83.00043 24zM31.99994 92h4v4a2 2 0 0 0 4 0V92h4a2 2 0 1 0 0-4h-4V84a2 2 0 0 0-4 0v4h-4a2 2 0 0 0 0 4zM66.186 75.21039a32.13041 32.13041 0 0 1-4.27686-3.1748 53.68543 53.68543 0 0 0-8.11426 2.6734A22.10155 22.10155 0 0 1 56.413 77.98187 53.2644 53.2644 0 0 1 66.186 75.21039zM116.954 77.76367a50.45877 50.45877 0 0 0-13.15619-5.47321 32.20174 32.20174 0 0 1-4.295 3.1153 48.59942 48.59942 0 0 1 15.85059 6.0708C115.83936 80.30957 116.37292 79.06879 116.954 77.76367zM122.99994 99c20.5-30.438 22.375-46.83691 24.88184-58.73969.36279-1.45984-.15613-2.26044-.91443-2.26031a2.03471 2.03471 0 0 0-1.46979.87738c-22.649 27.82233-30.49762 55.20172-30.49762 55.20172zm22.25989-55.87592C143.00568 54.434 139.936 69.84 122.40717 96.28729l-5.031-3.09473A175.96991 175.96991 0 0 1 145.46 42.12189Q145.36053 42.61765 145.25983 43.12408z"/>
    <polygon fill="#0bceb2"
             points="13.583 18.011 15.07 16.056 14.131 15.524 13.177 17.714 13.145 17.714 12.175 15.539 11.22 16.087 12.691 17.996 12.691 18.027 10.391 17.73 10.391 18.794 12.707 18.497 12.707 18.528 11.22 20.436 12.112 21 13.13 18.794 13.16 18.794 14.099 20.984 15.085 20.421 13.583 18.543 13.583 18.512 15.945 18.794 15.945 17.73 13.583 18.042 13.583 18.011"/>
    <polygon fill="#0bceb2"
             points="51.777 29.067 50.92 30.166 51.434 30.49 52.02 29.22 52.038 29.22 52.578 30.481 53.146 30.157 52.281 29.075 52.281 29.057 53.641 29.22 53.641 28.607 52.281 28.787 52.281 28.769 53.137 27.643 52.597 27.337 52.047 28.598 52.029 28.598 51.471 27.345 50.92 27.661 51.768 28.76 51.768 28.778 50.443 28.607 50.443 29.22 51.777 29.049 51.777 29.067"/>
    <polygon fill="#0bceb2"
             points="146 30.713 146 29.67 143.683 29.977 143.683 29.946 145.142 28.028 144.221 27.506 143.285 29.654 143.253 29.654 142.302 27.521 141.365 28.059 142.808 29.931 142.808 29.962 140.552 29.67 140.552 30.713 142.823 30.422 142.823 30.453 141.365 32.325 142.24 32.878 143.238 30.713 143.268 30.713 144.189 32.862 145.156 32.31 143.683 30.468 143.683 30.437 146 30.713"/>
    <polygon fill="#0bceb2"
             points="77.702 5.023 76.444 6.638 77.198 7.115 78.06 5.248 78.085 5.248 78.88 7.101 79.714 6.625 78.443 5.036 78.443 5.009 80.442 5.248 80.442 4.348 78.443 4.612 78.443 4.586 79.701 2.931 78.907 2.481 78.099 4.334 78.073 4.334 77.252 2.494 76.444 2.958 77.689 4.573 77.689 4.599 75.742 4.348 75.742 5.248 77.702 4.996 77.702 5.023"/>
    <path fill="#0bceb2"
          d="M118.15387 153h-8.30774a2.00641 2.00641 0 0 0 0 4h8.30774a2.00641 2.00641 0 0 0 0-4zM58.15387 153H49.84613a2.00641 2.00641 0 0 0 0 4h8.30774a2.00641 2.00641 0 0 0 0-4zM104 153H64a2 2 0 0 0 0 4H79.94v2H72a2 2 0 0 0 0 4H97a2 2 0 0 0 0-4H88.06v-2H104a2 2 0 0 0 0-4zM55.99994 90a18 18 0 1 0-18 18A18.00062 18.00062 0 0 0 55.99994 90zm-18 16a16 16 0 1 1 16-16A16.01833 16.01833 0 0 1 37.99994 106z"/>
</svg>