<svg xmlns="http://www.w3.org/2000/svg" width="80" height="80" viewBox="0 0 80 80">
    <path fill="#3F4662" fill-rule="evenodd"
          d="M58.177 80H8.346A7.155 7.155 0 0 1 .99 73.083V6.916A7.155 7.155 0 0 1 8.346 0h49.831a7.155 7.155 0 0 1 7.358 6.916V18.15a1.991 1.991 0 0 1-3.982 0V6.916A3.176 3.176 0 0 0 58.177 4H8.346a3.174 3.174 0 0 0-3.374 2.916v66.167A3.174 3.174 0 0 0 8.346 76h49.831a2 2 0 1 1 0 4zM37.6 44.149h-7.965a2 2 0 1 1 0-4H37.6a2 2 0 1 1 0 4zm-17.92 0h-7.964a2 2 0 1 1 0-4h7.964a2 2 0 1 1-.004 4h.004zm17.92 8h-7.965a2 2 0 1 1 0-4H37.6a2 2 0 1 1 0 4zm-17.92 0h-7.964a2 2 0 1 1 0-4h7.964a2 2 0 0 1-.004 4h.004zm17.92 8h-7.965a2 2 0 1 1 0-4H37.6a2 2 0 1 1 0 4zm-17.92 0h-7.964a2 2 0 1 1 0-4h7.964a2 2 0 0 1-.004 4h.004zm35.363-40h-7.488a2 2 0 1 1 0-4h7.488a2 2 0 0 1-.004 4h.004zm-17.443 0h-7.965a2 2 0 1 1 0-4H37.6a2 2 0 1 1 0 4zm-17.92 0h-7.964a2 2 0 1 1 0-4h7.964a2 2 0 0 1-.004 4h.004zm17.92 8h-7.965a2 2 0 1 1 0-4H37.6a2 2 0 1 1 0 4zm-17.92 0h-7.964a2 2 0 1 1 0-4h7.964a2 2 0 0 1-.004 4h.004zm17.92 8h-7.965a2 2 0 1 1 0-4H37.6a2 2 0 1 1 0 4zm-17.92 0h-7.964a2 2 0 1 1 0-4h7.964a2 2 0 0 1-.004 4h.004zm57.142 37.478c-.1 0-.352-.019-.449-.033-11.029-1.627-21.81-4.838-22.588-23.772h-8.443a2 2 0 0 1-1.567-3.234l14.958-19.151a1.988 1.988 0 0 1 3.135 0l14.956 19.151a2 2 0 0 1-1.567 3.234h-8.518c-.407 10.127 3.465 14.041 11.431 18.213a2.966 2.966 0 0 1-1.352 5.592h.004zM49.435 45.822h6.3a1.994 1.994 0 0 1 1.991 1.991c.061 14.4 5.633 18.774 13.6 20.765-6.156-4.357-9.345-10.038-8.439-20.922a1.992 1.992 0 0 1 1.983-1.834h6.3L60.3 31.912l-10.865 13.91z"/>
</svg>