<svg xmlns="http://www.w3.org/2000/svg" viewBox="0 0 64 64"><path d="M59 6H5a3.111 3.111 0 0 0-3 3.205V42.8A3.111 3.111 0 0 0 5 46h22v4h-7a1 1 0 0 0-1 1v5h-2v2h30v-2h-2v-5a1 1 0 0 0-1-1h-7v-4h22a3.111 3.111 0 0 0 3-3.2V9.205A3.111 3.111 0 0 0 59 6ZM5 8h54a1.119 1.119 0 0 1 1 1.205V38H4V9.205A1.119 1.119 0 0 1 5 8Zm38 48H21v-4h22Zm-8-6h-6v-4h6Zm24-6H5a1.119 1.119 0 0 1-1-1.2V40h56v2.8a1.119 1.119 0 0 1-1 1.2Z"/><path d="M55 41h2v2h-2zM34 26h2.522a9.266 9.266 0 0 0 .362.873L35.1 28.657a1 1 0 0 0 0 1.414l2.829 2.829a1 1 0 0 0 1.414 0l1.784-1.783a9.266 9.266 0 0 0 .873.362V34a1 1 0 0 0 1 1h4a1 1 0 0 0 1-1v-2.522a9.266 9.266 0 0 0 .873-.362l1.784 1.784a1 1 0 0 0 1.414 0l2.829-2.829a1 1 0 0 0 0-1.414l-1.783-1.784a9.266 9.266 0 0 0 .361-.873H56a1 1 0 0 0 1-1v-4a1 1 0 0 0-1-1h-2.522a9.266 9.266 0 0 0-.362-.873l1.784-1.784a1 1 0 0 0 0-1.414L52.071 13.1a1 1 0 0 0-1.414 0l-1.784 1.783a9.266 9.266 0 0 0-.873-.361V12a1 1 0 0 0-1-1h-4a1 1 0 0 0-1 1v2.522a9.266 9.266 0 0 0-.873.362L39.343 13.1a1 1 0 0 0-1.414 0L35.1 15.929a1 1 0 0 0 0 1.414l1.783 1.784a9.266 9.266 0 0 0-.362.873H34a1 1 0 0 0-1 1v4a1 1 0 0 0 1 1Zm1-4h2.262a1 1 0 0 0 .968-.75 7 7 0 0 1 .745-1.8 1 1 0 0 0-.154-1.216l-1.6-1.6 1.414-1.414 1.6 1.6a1 1 0 0 0 1.216.154 7 7 0 0 1 1.8-.745 1 1 0 0 0 .75-.968V13h2v2.262a1 1 0 0 0 .75.968 7 7 0 0 1 1.8.745 1 1 0 0 0 1.216-.154l1.6-1.6 1.414 1.414-1.6 1.6a1 1 0 0 0-.154 1.216 7 7 0 0 1 .745 1.8 1 1 0 0 0 .968.75H55v2h-2.262a1 1 0 0 0-.968.75 7 7 0 0 1-.745 1.8 1 1 0 0 0 .154 1.216l1.6 1.6-1.414 1.414-1.6-1.6a1 1 0 0 0-1.216-.154 7 7 0 0 1-1.8.745 1 1 0 0 0-.75.968V33H44v-2.262a1 1 0 0 0-.75-.968 7 7 0 0 1-1.8-.745 1 1 0 0 0-1.216.154l-1.6 1.6-1.414-1.414 1.6-1.6a1 1 0 0 0 .154-1.216 7 7 0 0 1-.745-1.8 1 1 0 0 0-.968-.75H35Z"/><path d="M45 28a5 5 0 1 0-5-5 5.006 5.006 0 0 0 5 5zm0-8a3 3 0 1 1-3 3 3 3 0 0 1 3-3zM9.293 16.707l1.414-1.414L9.414 14l1.293-1.293-1.414-1.414-2 2a1 1 0 0 0 0 1.414zM12.2 15.4l3-4 1.6 1.2-3 4zM19.707 16.707l2-2a1 1 0 0 0 0-1.414l-2-2-1.414 1.414L19.586 14l-1.293 1.293ZM24 15h2v2h-2zM9 19h4v2H9zM15 19h2v2h-2zM19 19h6v2h-6zM27 19h2v2h-2zM11 23h2v2h-2zM15 23h4v2h-4zM21 23h2v2h-2zM25 23h4v2h-4zM9 29h4v2H9zM15 29h2v2h-2zM19 29h6v2h-6zM27 29h2v2h-2zM11 33h2v2h-2zM15 33h4v2h-4zM21 33h2v2h-2zM25 33h4v2h-4z"/></svg>